<svg xmlns="http://www.w3.org/2000/svg" xmlns:xlink="http://www.w3.org/1999/xlink" width="1710.426" height="409.5" viewBox="0 0 1710.426 409.5">
  <defs>
    <linearGradient id="a" x1="-1409.803" y1="6514.323" x2="-1410.96" y2="6531.644" gradientTransform="translate(-4354.891 -4259.289) rotate(-60)" gradientUnits="userSpaceOnUse">
      <stop offset="0.184" stop-color="#3e88ff"/>
      <stop offset="0.88" stop-color="#2741ff"/>
    </linearGradient>
    <linearGradient id="b" x1="583.452" y1="188.924" x2="610.925" y2="210.476" gradientUnits="userSpaceOnUse">
      <stop offset="0.206" stop-color="#8fffff"/>
      <stop offset="0.881" stop-color="#4ac3ff"/>
    </linearGradient>
    <linearGradient id="c" x1="566.917" y1="160.285" x2="594.39" y2="181.837" xlink:href="#b"/>
    <linearGradient id="d" x1="-1376.734" y1="6495.23" x2="-1377.89" y2="6512.551" xlink:href="#a"/>
    <linearGradient id="e" x1="616.521" y1="208.017" x2="643.995" y2="229.569" gradientUnits="userSpaceOnUse">
      <stop offset="0.206" stop-color="#ff48e9"/>
      <stop offset="0.816" stop-color="#bc3eff"/>
    </linearGradient>
    <linearGradient id="f" x1="-7802.051" y1="8024.386" x2="-7836.81" y2="8027.707" gradientTransform="translate(-10220.989 -2553.076) rotate(-120)" gradientUnits="userSpaceOnUse">
      <stop offset="0" stop-color="#cc31ff"/>
      <stop offset="0.85" stop-color="#8f10ff"/>
    </linearGradient>
    <linearGradient id="g" x1="562.914" y1="178.479" x2="618.007" y2="253.578" gradientUnits="userSpaceOnUse">
      <stop offset="0" stop-color="#50fffa"/>
      <stop offset="1" stop-color="#3386ff"/>
    </linearGradient>
    <linearGradient id="h" x1="599.986" y1="141.192" x2="627.46" y2="162.744" gradientUnits="userSpaceOnUse">
      <stop offset="0" stop-color="#fff35c"/>
      <stop offset="1" stop-color="#ffad1d"/>
    </linearGradient>
    <linearGradient id="i" x1="-7752.446" y1="8014.84" x2="-7787.206" y2="8018.161" gradientTransform="translate(-10220.989 -2553.076) rotate(-120)" gradientUnits="userSpaceOnUse">
      <stop offset="0.051" stop-color="#ffc23b"/>
      <stop offset="0.911" stop-color="#ff8017"/>
    </linearGradient>
    <linearGradient id="j" x1="-1343.664" y1="6514.323" x2="-1344.821" y2="6531.644" gradientTransform="translate(-4354.891 -4259.289) rotate(-60)" gradientUnits="userSpaceOnUse">
      <stop offset="0.026" stop-color="#ff831d"/>
      <stop offset="1" stop-color="#ff5317"/>
    </linearGradient>
    <linearGradient id="k" x1="608.921" y1="163.869" x2="651.425" y2="197.212" xlink:href="#e"/>
    <linearGradient id="l" x1="619.353" y1="194.602" x2="660.142" y2="235.838" gradientUnits="userSpaceOnUse">
      <stop offset="0" stop-color="#8f10ff"/>
      <stop offset="0.983" stop-color="#571aff"/>
    </linearGradient>
  </defs>
  <g>
    <rect x="128.282" y="30.713" width="1453.863" height="348.075" rx="43.357" fill="#030a1c"/>
    <g>
      <g>
        <polygon points="580.809 238.008 597.344 228.461 597.344 209.368 580.809 218.915 580.809 238.008" fill="url(#a)"/>
        <polygon points="580.809 199.822 597.344 209.368 613.879 199.822 597.344 190.276 580.809 199.822" fill="url(#b)"/>
        <polygon points="564.274 171.183 580.809 180.729 597.344 171.183 580.809 161.637 564.274 171.183" fill="url(#c)"/>
        <polygon points="580.809 199.822 597.344 190.276 597.344 171.183 580.809 180.729 580.809 199.822" fill="url(#d)"/>
        <polygon points="613.879 218.915 630.413 228.461 646.948 218.915 630.413 209.368 613.879 218.915" fill="url(#e)"/>
        <polygon points="646.948 218.915 646.948 199.822 630.413 190.276 630.413 209.368 646.948 218.915" fill="url(#f)"/>
        <polygon points="597.344 190.276 597.344 209.368 580.809 199.822 580.809 180.729 564.274 171.183 564.274 190.276 564.274 209.368 564.274 228.461 580.809 238.008 580.809 218.915 597.344 228.461 597.344 247.554 613.879 257.1 613.879 238.008 613.879 218.915 613.879 199.822 597.344 190.276" fill="url(#g)"/>
        <polygon points="597.344 152.09 613.879 161.637 630.413 152.09 613.879 142.544 597.344 152.09" fill="url(#h)"/>
        <polygon points="613.879 180.729 613.879 161.637 597.344 152.09 597.344 171.183 613.879 180.729" fill="url(#i)"/>
        <polygon points="613.879 180.729 630.413 171.183 630.413 152.09 613.879 161.637 613.879 180.729" fill="url(#j)"/>
        <polygon points="646.948 161.637 630.414 171.183 613.879 180.729 597.344 190.276 613.879 199.822 630.414 190.276 646.948 180.729 663.483 171.183 646.948 161.637" fill="url(#k)"/>
        <path d="M646.948,180.729l-16.534,9.547-16.535,9.546V257.1l16.535-9.546,16.534-9.546,16.535-9.547V171.183Zm0,38.186-16.534,9.546V209.368l16.534-9.546Z" fill="url(#l)"/>
      </g>
      <g>
        <path d="M707.7,242.867v-86.1H723.94v35.544h31.981V156.767h16.24v86.1h-16.24V207.073H723.94v35.794Z" fill="#fff"/>
        <path d="M842.727,181.856v85.616H788.356V253.12h38.871V235.326a15.251,15.251,0,0,1-2.824,3.725,15.767,15.767,0,0,1-5.666,3.442,29.331,29.331,0,0,1-9.639,1.36,29.754,29.754,0,0,1-14.158-3.266,21.968,21.968,0,0,1-8.3-9.039,28.893,28.893,0,0,1-2.947-13.275V181.856h15.5v35.182q0,6.883,3.371,10.327a12.949,12.949,0,0,0,9.656,3.46,13.561,13.561,0,0,0,11.068-4.749c2.631-3.16,3.937-7.556,3.937-13.222v-31Z" fill="#fff"/>
        <path d="M869.853,235.856v31.612h-15.5V181.852h15.26v7.383a19,19,0,0,1,6.52-6.338c2.948-1.841,8.066-2.768,13.561-2.768a31.817,31.817,0,0,1,14.973,3.63A26.659,26.659,0,0,1,914.751,194.4a35.072,35.072,0,0,1,3.814,16.976v1.967a35.075,35.075,0,0,1-3.814,16.971,26.628,26.628,0,0,1-10.085,10.642,31.816,31.816,0,0,1-14.973,3.629,34.955,34.955,0,0,1-10.182-1.292,17.451,17.451,0,0,1-6.026-3.323A20.45,20.45,0,0,1,869.853,235.856Zm16.48-4.795a16.472,16.472,0,0,0,11.993-4.614q4.735-4.61,4.736-13.469v-1.236q0-8.851-4.8-13.469a17.747,17.747,0,0,0-23.862,0q-4.8,4.617-4.8,13.469v1.236q0,8.859,4.8,13.469A16.53,16.53,0,0,0,886.333,231.061Z" fill="#fff"/>
        <path d="M957.589,244.59a32.411,32.411,0,0,1-16.049-3.883,27.282,27.282,0,0,1-10.821-10.945,34.191,34.191,0,0,1-3.885-16.668v-1.476a34.626,34.626,0,0,1,3.815-16.668,27,27,0,0,1,10.7-10.945,32.09,32.09,0,0,1,15.992-3.883,29.7,29.7,0,0,1,15.618,4A27.477,27.477,0,0,1,983.3,195.193a35.034,35.034,0,0,1,3.69,16.417V216.9H942.579a13.8,13.8,0,0,0,4.674,10.21,15.72,15.72,0,0,0,10.827,3.938q6.519,0,9.594-2.833a19.966,19.966,0,0,0,4.675-6.27l12.668,6.641a39.34,39.34,0,0,1-4.981,6.952,26.948,26.948,0,0,1-8.671,6.4A31.416,31.416,0,0,1,957.589,244.59ZM942.71,205.355h28.534a12.156,12.156,0,0,0-4.237-8.473,16.835,16.835,0,0,0-19.747,0A13.74,13.74,0,0,0,942.71,205.355Z" fill="#fff"/>
        <path d="M1034.305,196.2H1013l.15,11.979v34.688h-15.5V181.857h36.658Z" fill="#fff"/>
        <path d="M1063.641,156.56v16.645h-16.647V156.56Zm-.565,25.295v61.009h-15.517V181.855Z" fill="#fff"/>
        <path d="M1108.411,244.59a35.589,35.589,0,0,1-16.355-3.689,27.684,27.684,0,0,1-11.442-10.7,32.315,32.315,0,0,1-4.184-16.852v-1.966a32.315,32.315,0,0,1,4.184-16.852,27.628,27.628,0,0,1,11.442-10.7,38.061,38.061,0,0,1,32.718,0,27.66,27.66,0,0,1,11.435,10.7,32.305,32.305,0,0,1,4.184,16.852v1.966a32.305,32.305,0,0,1-4.184,16.852,27.7,27.7,0,0,1-11.435,10.7A35.635,35.635,0,0,1,1108.411,244.59Zm0-13.769a16.139,16.139,0,0,0,11.812-4.614q4.671-4.61,4.671-13.224v-1.236q0-8.6-4.61-13.224a17.511,17.511,0,0,0-23.679,0q-4.677,4.619-4.674,13.224v1.236q0,8.611,4.674,13.224a16.12,16.12,0,0,0,11.806,4.609Z" fill="#fff"/>
      </g>
    </g>
  </g>
</svg>
